<svg width="228" height="48" viewBox="0 0 228 48" fill="none" xmlns="http://www.w3.org/2000/svg">
<rect width="6" height="48" rx="3" fill="#EE4D38"/>
<g clip-path="url(#clip0_3_73)">
<path d="M47.3333 20H34C32.5272 20 31.3333 21.1939 31.3333 22.6667V30.6667C31.3333 32.1394 32.5272 33.3333 34 33.3333H47.3333C48.8061 33.3333 50 32.1394 50 30.6667V22.6667C50 21.1939 48.8061 20 47.3333 20Z" stroke="#1A194D" stroke-width="2" stroke-linecap="round" stroke-linejoin="round"/>
<path d="M40.6667 29.3333C42.1394 29.3333 43.3333 28.1394 43.3333 26.6667C43.3333 25.1939 42.1394 24 40.6667 24C39.1939 24 38 25.1939 38 26.6667C38 28.1394 39.1939 29.3333 40.6667 29.3333Z" stroke="#1A194D" stroke-width="2" stroke-linecap="round" stroke-linejoin="round"/>
<path d="M44.6667 20V17.3333C44.6667 16.6261 44.3857 15.9478 43.8856 15.4477C43.3855 14.9476 42.7072 14.6667 42 14.6667H28.6667C27.9594 14.6667 27.2811 14.9476 26.781 15.4477C26.281 15.9478 26 16.6261 26 17.3333V25.3333C26 26.0406 26.281 26.7189 26.781 27.219C27.2811 27.7191 27.9594 28 28.6667 28H31.3333" stroke="#1A194D" stroke-width="2" stroke-linecap="round" stroke-linejoin="round"/>
</g>
<path d="M69.838 23.39C70.4447 23.5207 70.9347 23.81 71.308 24.258C71.6907 24.706 71.882 25.2333 71.882 25.84C71.882 26.6427 71.6067 27.2867 71.056 27.772C70.5147 28.2573 69.726 28.5 68.69 28.5H65.022V18.63H68.634C69.6233 18.63 70.3747 18.8493 70.888 19.288C71.4013 19.7267 71.658 20.3287 71.658 21.094C71.658 21.7287 71.4853 22.242 71.14 22.634C70.804 23.026 70.37 23.278 69.838 23.39ZM66.296 22.956H68.424C69.0493 22.956 69.5253 22.8113 69.852 22.522C70.188 22.2327 70.356 21.8267 70.356 21.304C70.356 20.8 70.1927 20.4033 69.866 20.114C69.5393 19.8247 69.04 19.68 68.368 19.68H66.296V22.956ZM68.452 27.436C69.124 27.436 69.642 27.282 70.006 26.974C70.3793 26.666 70.566 26.232 70.566 25.672C70.566 25.1213 70.3747 24.692 69.992 24.384C69.6187 24.0667 69.096 23.908 68.424 23.908H66.296V27.436H68.452ZM73.2472 18.56C73.2472 18.3267 73.3266 18.14 73.4852 18C73.6439 17.8507 73.8539 17.776 74.1152 17.776C74.3766 17.776 74.5866 17.8507 74.7452 18C74.9039 18.14 74.9832 18.3267 74.9832 18.56C74.9832 18.7933 74.9039 18.9847 74.7452 19.134C74.5866 19.274 74.3766 19.344 74.1152 19.344C73.8539 19.344 73.6439 19.274 73.4852 19.134C73.3266 18.9847 73.2472 18.7933 73.2472 18.56ZM74.7452 20.814V28.5H73.4712V20.814H74.7452ZM78.0675 18.14V28.5H76.7935V18.14H78.0675ZM81.3898 18.14V28.5H80.1158V18.14H81.3898ZM83.214 18.56C83.214 18.3267 83.2933 18.14 83.452 18C83.6107 17.8507 83.8207 17.776 84.082 17.776C84.3433 17.776 84.5533 17.8507 84.712 18C84.8707 18.14 84.95 18.3267 84.95 18.56C84.95 18.7933 84.8707 18.9847 84.712 19.134C84.5533 19.274 84.3433 19.344 84.082 19.344C83.8207 19.344 83.6107 19.274 83.452 19.134C83.2933 18.9847 83.214 18.7933 83.214 18.56ZM84.712 20.814V28.5H83.438V20.814H84.712ZM90.8063 20.688C91.7023 20.688 92.4256 20.9773 92.9763 21.556C93.5269 22.1253 93.8023 22.9513 93.8023 24.034V28.5H92.5283V24.146C92.5283 23.3807 92.3323 22.7927 91.9403 22.382C91.5483 21.9713 91.0163 21.766 90.3443 21.766C89.6443 21.766 89.0843 21.9947 88.6643 22.452C88.2443 22.9 88.0343 23.558 88.0343 24.426V28.5H86.7603V20.814H88.0343V22.634C88.2303 22.0087 88.5756 21.528 89.0703 21.192C89.5743 20.856 90.1529 20.688 90.8063 20.688ZM98.9064 20.716C99.653 20.716 100.283 20.9027 100.796 21.276C101.319 21.6493 101.683 22.1487 101.888 22.774V20.814H103.162V28.626C103.162 29.3353 103.013 29.9653 102.714 30.516C102.416 31.0667 101.996 31.496 101.454 31.804C100.913 32.112 100.283 32.266 99.5644 32.266C98.5284 32.266 97.6837 32.014 97.0304 31.51C96.377 31.0153 95.9617 30.3433 95.7844 29.494H97.0444C97.1937 30.0073 97.4737 30.4087 97.8844 30.698C98.3044 30.9967 98.841 31.146 99.4944 31.146C100.185 31.146 100.754 30.922 101.202 30.474C101.66 30.0353 101.888 29.4193 101.888 28.626V26.54C101.683 27.1653 101.319 27.6647 100.796 28.038C100.283 28.4113 99.653 28.598 98.9064 28.598C98.225 28.598 97.6184 28.4393 97.0864 28.122C96.5544 27.8047 96.1344 27.352 95.8264 26.764C95.5277 26.1667 95.3784 25.4667 95.3784 24.664C95.3784 23.8613 95.5277 23.1613 95.8264 22.564C96.1344 21.9667 96.5544 21.5093 97.0864 21.192C97.6184 20.8747 98.225 20.716 98.9064 20.716ZM99.2704 21.85C98.4864 21.85 97.8564 22.102 97.3804 22.606C96.9137 23.1007 96.6804 23.7867 96.6804 24.664C96.6804 25.5413 96.9137 26.232 97.3804 26.736C97.8564 27.2307 98.4864 27.478 99.2704 27.478C99.7744 27.478 100.222 27.3613 100.614 27.128C101.016 26.8947 101.328 26.568 101.552 26.148C101.776 25.7187 101.888 25.224 101.888 24.664C101.888 24.104 101.776 23.6093 101.552 23.18C101.328 22.7507 101.016 22.424 100.614 22.2C100.222 21.9667 99.7744 21.85 99.2704 21.85Z" fill="#1A194D"/>
<defs>
<clipPath id="clip0_3_73">
<rect width="32" height="32" fill="white" transform="translate(22 8)"/>
</clipPath>
</defs>
</svg>
